<svg width="66" height="66" viewBox="0 0 66 66" fill="none" xmlns="http://www.w3.org/2000/svg">
<rect width="66" height="66" rx="24" fill="#3D3F54"/>
<path d="M40 42H38V40C37.9993 39.8684 38.0245 39.7379 38.0742 39.6161C38.124 39.4943 38.1973 39.3834 38.29 39.29L42 35.59V26C42 25.7348 41.8946 25.4804 41.7071 25.2929C41.5196 25.1054 41.2652 25 41 25C40.7348 25 40.4804 25.1054 40.2929 25.2929C40.1054 25.4804 40 25.7348 40 26V31H38V26C38 25.2044 38.3161 24.4413 38.8787 23.8787C39.4413 23.3161 40.2044 23 41 23C41.7957 23 42.5587 23.3161 43.1213 23.8787C43.6839 24.4413 44 25.2044 44 26V36C43.9995 36.1323 43.9727 36.2632 43.9212 36.3851C43.8697 36.5069 43.7945 36.6174 43.7 36.71L40 40.41V42Z" fill="white"/>
<path d="M35 42H33V34.09C32.9993 33.9584 33.0245 33.828 33.0742 33.7061C33.124 33.5843 33.1973 33.4735 33.29 33.38L35.79 30.88C36.3623 30.337 37.1211 30.0343 37.91 30.0343C38.6989 30.0343 39.4577 30.337 40.03 30.88C40.5918 31.4425 40.9074 32.205 40.9074 33C40.9074 33.795 40.5918 34.5575 40.03 35.12L38.53 36.62L37.12 35.21L38.62 33.71C38.7137 33.6171 38.7881 33.5065 38.8389 33.3846C38.8897 33.2628 38.9158 33.132 38.9158 33C38.9158 32.868 38.8897 32.7373 38.8389 32.6154C38.7881 32.4936 38.7137 32.383 38.62 32.29C38.527 32.1963 38.4165 32.1219 38.2946 32.0711C38.1727 32.0204 38.042 31.9942 37.91 31.9942C37.778 31.9942 37.6473 32.0204 37.5254 32.0711C37.4036 32.1219 37.293 32.1963 37.2 32.29L35 34.5V42Z" fill="white"/>
<path d="M41.99 44H39.99V43H34.99V44H32.99V41H41.99V44Z" fill="white"/>
<path d="M25.91 42H23.91V40.41L20.28 36.7C20.0989 36.5121 19.9985 36.2609 20 36V26C20 25.2044 20.3161 24.4413 20.8787 23.8787C21.4413 23.3161 22.2044 23 23 23C23.7957 23 24.5587 23.3161 25.1213 23.8787C25.6839 24.4413 26 25.2044 26 26V31H24V26C24 25.7348 23.8946 25.4804 23.7071 25.2929C23.5196 25.1054 23.2652 25 23 25C22.7348 25 22.4804 25.1054 22.2929 25.2929C22.1054 25.4804 22 25.7348 22 26V35.59L25.62 39.3C25.8011 39.4879 25.9016 39.7391 25.9 40L25.91 42Z" fill="white"/>
<path d="M31 42H29V34.51L26.72 32.3C26.6269 32.2047 26.5156 32.1291 26.3929 32.0774C26.2701 32.0257 26.1382 31.9991 26.005 31.9991C25.8718 31.9991 25.7399 32.0257 25.6171 32.0774C25.4943 32.1291 25.3831 32.2047 25.29 32.3C25.1963 32.393 25.1219 32.5036 25.0711 32.6254C25.0203 32.7473 24.9942 32.878 24.9942 33.01C24.9942 33.142 25.0203 33.2727 25.0711 33.3946C25.1219 33.5164 25.1963 33.627 25.29 33.72L26.79 35.22L25.38 36.63L23.88 35.13C23.3182 34.5675 23.0026 33.805 23.0026 33.01C23.0026 32.215 23.3182 31.4525 23.88 30.89C24.4499 30.3424 25.2096 30.0366 26 30.0366C26.7904 30.0366 27.5501 30.3424 28.12 30.89L30.69 33.38C30.7875 33.473 30.8652 33.5846 30.9185 33.7083C30.9718 33.8321 30.9995 33.9653 31 34.1V42Z" fill="white"/>
<path d="M30.99 44H28.99V43H23.91V44H21.91V41H30.99V44Z" fill="white"/>
<path d="M33 25H31C30.4696 25 29.9609 25.2107 29.5858 25.5858C29.2107 25.9609 29 26.4696 29 27V29H35V27C35 26.4696 34.7893 25.9609 34.4142 25.5858C34.0391 25.2107 33.5304 25 33 25Z" fill="white"/>
<path d="M31.99 24C33.0946 24 33.99 23.1046 33.99 22C33.99 20.8954 33.0946 20 31.99 20C30.8854 20 29.99 20.8954 29.99 22C29.99 23.1046 30.8854 24 31.99 24Z" fill="white"/>
</svg>
