<svg width="66" height="66" viewBox="0 0 66 66" fill="none" xmlns="http://www.w3.org/2000/svg">
<rect width="66" height="66.0015" rx="24" fill="#3D3F54"/>
<path d="M25.1291 50.0015C23.9411 50.0004 22.8022 49.5277 21.9628 48.6872L17.3179 43.9825C16.9002 43.5663 16.5687 43.0716 16.3426 42.527C16.1164 41.9824 16 41.3985 16 40.8087C16 40.219 16.1164 39.6351 16.3426 39.0905C16.5687 38.5459 16.9002 38.0512 17.3179 37.635L23.5012 31.4517C24.3559 30.6407 25.4892 30.1886 26.6675 30.1886C27.8457 30.1886 28.979 30.6407 29.8337 31.4517L34.4786 36.1414C34.8963 36.5577 35.2278 37.0523 35.4539 37.597C35.6801 38.1416 35.7965 38.7255 35.7965 39.3152C35.7965 39.9049 35.6801 40.4888 35.4539 41.0335C35.2278 41.5781 34.8963 42.0727 34.4786 42.489L28.2954 48.6573C27.8822 49.0789 27.3898 49.4147 26.8464 49.6453C26.303 49.876 25.7194 49.9971 25.1291 50.0015ZM26.6226 33.1394C26.426 33.1383 26.2312 33.176 26.0492 33.2503C25.8672 33.3246 25.7018 33.4341 25.5622 33.5725L19.379 39.7558C19.1008 40.0356 18.9447 40.4142 18.9447 40.8087C18.9447 41.2033 19.1008 41.5819 19.379 41.8617L24.0687 46.5962C24.2076 46.7362 24.3727 46.8473 24.5547 46.9231C24.7367 46.999 24.9319 47.038 25.1291 47.038C25.3262 47.038 25.5214 46.999 25.7035 46.9231C25.8855 46.8473 26.0507 46.7362 26.1895 46.5962L32.3578 40.413C32.636 40.1331 32.7921 39.7546 32.7921 39.36C32.7921 38.9654 32.636 38.5869 32.3578 38.3071L27.6531 33.5875C27.5136 33.4491 27.3481 33.3395 27.1662 33.2652C26.9842 33.1909 26.7894 33.1532 26.5928 33.1544L26.6226 33.1394Z" fill="white"/>
<path d="M39.3176 35.8129C38.1297 35.8118 36.9908 35.3391 36.1513 34.4986L31.4318 29.7939C31.0141 29.3777 30.6826 28.883 30.4565 28.3384C30.2303 27.7938 30.1139 27.2099 30.1139 26.6201C30.1139 26.0304 30.2303 25.4465 30.4565 24.9019C30.6826 24.3573 31.0141 23.8626 31.4318 23.4464L37.615 17.2631C38.4698 16.4521 39.6031 16 40.7813 16C41.9596 16 43.0929 16.4521 43.9476 17.2631L48.6821 21.9827C49.0998 22.399 49.4313 22.8936 49.6574 23.4382C49.8836 23.9829 50 24.5668 50 25.1565C50 25.7462 49.8836 26.3301 49.6574 26.8747C49.4313 27.4194 49.0998 27.914 48.6821 28.3302L42.4989 34.4986C42.0814 34.9165 41.5855 35.2478 41.0395 35.4734C40.4935 35.699 39.9083 35.8143 39.3176 35.8129ZM40.8112 18.9508C40.6146 18.9497 40.4197 18.9874 40.2378 19.0617C40.0558 19.136 39.8904 19.2455 39.7508 19.3839L33.5675 25.5672C33.2893 25.847 33.1332 26.2256 33.1332 26.6201C33.1332 27.0147 33.2893 27.3933 33.5675 27.6731L38.2274 32.3927C38.3662 32.5327 38.5314 32.6438 38.7134 32.7196C38.8954 32.7954 39.0906 32.8345 39.2878 32.8345C39.485 32.8345 39.6802 32.7954 39.8622 32.7196C40.0442 32.6438 40.2093 32.5327 40.3482 32.3927L46.5165 26.2094C46.7947 25.9296 46.9509 25.551 46.9509 25.1565C46.9509 24.7619 46.7947 24.3834 46.5165 24.1035L41.8119 19.3839C41.5374 19.1116 41.168 18.9564 40.7813 18.9508H40.8112Z" fill="white"/>
<path d="M37.5335 26.2917L25.5891 38.2361L27.7013 40.3483L39.6457 28.4039L37.5335 26.2917Z" fill="white"/>
</svg>
