<svg width="66" height="66" viewBox="0 0 66 66" fill="none" xmlns="http://www.w3.org/2000/svg">
<rect width="66" height="66" rx="24" fill="#3D3F54"/>
<path d="M32.64 35.6406H31.36C30.681 35.6406 30.0299 35.341 29.5498 34.8077C29.0698 34.2744 28.8 33.5511 28.8 32.7969V31.375C28.8 30.6208 29.0698 29.8975 29.5498 29.3642C30.0299 28.8309 30.681 28.5312 31.36 28.5312H36.48V31.375H31.36V32.7969H32.64V35.6406Z" fill="white"/>
<path d="M33.92 39.9062H28.8V37.0625H33.92V35.6406H31.36V32.7969H33.92C34.599 32.7969 35.2501 33.0965 35.7302 33.6298C36.2103 34.1631 36.48 34.8864 36.48 35.6406V37.0625C36.48 37.8167 36.2103 38.54 35.7302 39.0733C35.2501 39.6066 34.599 39.9062 33.92 39.9062Z" fill="white"/>
<path d="M33.92 27.1094H31.36V29.9531H33.92V27.1094Z" fill="white"/>
<path d="M33.92 38.4844H31.36V41.3281H33.92V38.4844Z" fill="white"/>
<path d="M48 45.5938H16V20H48V45.5938ZM18.9091 42.3945H45.0909V23.1992H18.9091V42.3945Z" fill="white"/>
</svg>
